<svg fill="none" viewBox="0 0 32 32" xmlns="http://www.w3.org/2000/svg" xmlns:xlink="http://www.w3.org/1999/xlink"><defs><path id="a" d="m28 8-5.5 16.5" stroke="#3f76e1" stroke-linecap="round" stroke-width="5"/><path id="b" d="m9.5 24.5s.75-11.5 6.5-11.5 6.5 11.5 6.5 11.5" stroke="#3f76e1" stroke-linecap="round" stroke-linejoin="round" stroke-width="5"/><mask id="c" height="23" maskUnits="userSpaceOnUse" width="12" x="19" y="5"><use fill="none" stroke-linecap="round" stroke-width="5" xlink:href="#a"/></mask><mask id="d" height="17" maskUnits="userSpaceOnUse" width="18" x="7" y="10"><use fill="none" stroke-linecap="round" stroke-linejoin="round" stroke-width="5" xlink:href="#b"/></mask><filter id="e" color-interpolation-filters="sRGB" filterUnits="userSpaceOnUse" height="23.5013" width="14.0013" x="18.4993" y="3.49933"><feFlood flood-opacity="0" result="BackgroundImageFix"/><feBlend in="SourceGraphic" in2="BackgroundImageFix" result="shape"/><feColorMatrix in="SourceAlpha" result="hardAlpha" values="0 0 0 0 0 0 0 0 0 0 0 0 0 0 0 0 0 0 127 0"/><feOffset dx="3" dy="-2"/><feGaussianBlur stdDeviation="1"/><feComposite in2="hardAlpha" k2="-1" k3="1" operator="arithmetic"/><feColorMatrix values="0 0 0 0 0.258824 0 0 0 0 0.662745 0 0 0 0 0.823529 0 0 0 1 0"/><feBlend in2="shape" result="effect1_innerShadow_101_301"/><feColorMatrix in="SourceAlpha" result="hardAlpha" values="0 0 0 0 0 0 0 0 0 0 0 0 0 0 0 0 0 0 127 0"/><feOffset dx="-3"/><feGaussianBlur stdDeviation=".75"/><feComposite in2="hardAlpha" k2="-1" k3="1" operator="arithmetic"/><feColorMatrix values="0 0 0 0 0.328195 0 0 0 0 0.354907 0 0 0 0 0.995993 0 0 0 1 0"/><feBlend in2="effect1_innerShadow_101_301" result="effect2_innerShadow_101_301"/><feColorMatrix in="SourceAlpha" result="hardAlpha" values="0 0 0 0 0 0 0 0 0 0 0 0 0 0 0 0 0 0 127 0"/><feOffset dx="-.5" dy="-2"/><feGaussianBlur stdDeviation="1"/><feComposite in2="hardAlpha" k2="-1" k3="1" operator="arithmetic"/><feColorMatrix values="0 0 0 0 0.889216 0 0 0 0 0.208682 0 0 0 0 1 0 0 0 1 0"/><feBlend in2="effect2_innerShadow_101_301" result="effect3_innerShadow_101_301"/></filter><filter id="f" color-interpolation-filters="sRGB" filterUnits="userSpaceOnUse" height="14" width="6" x="20.65" y="12"><feFlood flood-opacity="0" result="BackgroundImageFix"/><feBlend in="SourceGraphic" in2="BackgroundImageFix" result="shape"/><feGaussianBlur result="effect1_foregroundBlur_101_301" stdDeviation=".5"/></filter><filter id="g" color-interpolation-filters="sRGB" filterUnits="userSpaceOnUse" height="19.5001" width="20.0002" x="4.99991" y="9.5"><feFlood flood-opacity="0" result="BackgroundImageFix"/><feBlend in="SourceGraphic" in2="BackgroundImageFix" result="shape"/><feColorMatrix in="SourceAlpha" result="hardAlpha" values="0 0 0 0 0 0 0 0 0 0 0 0 0 0 0 0 0 0 127 0"/><feOffset dy="2"/><feGaussianBlur stdDeviation="1"/><feComposite in2="hardAlpha" k2="-1" k3="1" operator="arithmetic"/><feColorMatrix values="0 0 0 0 0.208682 0 0 0 0 1 0 0 0 0 0.715126 0 0 0 1 0"/><feBlend in2="shape" result="effect1_innerShadow_101_301"/><feColorMatrix in="SourceAlpha" result="hardAlpha" values="0 0 0 0 0 0 0 0 0 0 0 0 0 0 0 0 0 0 127 0"/><feOffset dx="-2" dy="-1"/><feGaussianBlur stdDeviation="1"/><feComposite in2="hardAlpha" k2="-1" k3="1" operator="arithmetic"/><feColorMatrix values="0 0 0 0 0.889216 0 0 0 0 0.208682 0 0 0 0 1 0 0 0 1 0"/><feBlend in2="effect1_innerShadow_101_301" result="effect2_innerShadow_101_301"/></filter><filter id="h" color-interpolation-filters="sRGB" filterUnits="userSpaceOnUse" height="14" width="6" x="7" y="12"><feFlood flood-opacity="0" result="BackgroundImageFix"/><feBlend in="SourceGraphic" in2="BackgroundImageFix" result="shape"/><feGaussianBlur result="effect1_foregroundBlur_101_301" stdDeviation=".5"/></filter><filter id="i" color-interpolation-filters="sRGB" filterUnits="userSpaceOnUse" height="25.5012" width="11.5012" x=".499329" y="3.49933"><feFlood flood-opacity="0" result="BackgroundImageFix"/><feBlend in="SourceGraphic" in2="BackgroundImageFix" result="shape"/><feColorMatrix in="SourceAlpha" result="hardAlpha" values="0 0 0 0 0 0 0 0 0 0 0 0 0 0 0 0 0 0 127 0"/><feOffset dx="-1" dy="2"/><feGaussianBlur stdDeviation="1"/><feComposite in2="hardAlpha" k2="-1" k3="1" operator="arithmetic"/><feColorMatrix values="0 0 0 0 0.65182 0 0 0 0 0.208682 0 0 0 0 1 0 0 0 1 0"/><feBlend in2="shape" result="effect1_innerShadow_101_301"/><feColorMatrix in="SourceAlpha" result="hardAlpha" values="0 0 0 0 0 0 0 0 0 0 0 0 0 0 0 0 0 0 127 0"/><feOffset dy="-5"/><feGaussianBlur stdDeviation="1"/><feComposite in2="hardAlpha" k2="-1" k3="1" operator="arithmetic"/><feColorMatrix values="0 0 0 0 1 0 0 0 0 0.635994 0 0 0 0 0.208682 0 0 0 1 0"/><feBlend in2="effect1_innerShadow_101_301" result="effect2_innerShadow_101_301"/></filter><filter id="j" color-interpolation-filters="sRGB" filterUnits="userSpaceOnUse" height="23.5014" width="29.0011" x="1.49954" y="5.49933"><feFlood flood-opacity="0" result="BackgroundImageFix"/><feBlend in="SourceGraphic" in2="BackgroundImageFix" result="shape"/><feColorMatrix in="SourceAlpha" result="hardAlpha" values="0 0 0 0 0 0 0 0 0 0 0 0 0 0 0 0 0 0 127 0"/><feOffset dy="2"/><feGaussianBlur stdDeviation="1"/><feComposite in2="hardAlpha" k2="-1" k3="1" operator="arithmetic"/><feColorMatrix values="0 0 0 0 0 0 0 0 0 0 0 0 0 0 0 0 0 0 0.5 0"/><feBlend in2="shape" mode="soft-light" result="effect1_innerShadow_101_301"/></filter><radialGradient id="k" cx="0" cy="0" gradientTransform="matrix(2.5 -.5 2.29687 11.48437 1.99999 9.5)" gradientUnits="userSpaceOnUse" r="1"><stop offset="0" stop-color="#e335ff"/><stop offset="1" stop-color="#a635ff" stop-opacity="0"/></radialGradient><radialGradient id="l" cx="0" cy="0" gradientTransform="matrix(4.5 -6 6 4.5 11.5 23.5)" gradientUnits="userSpaceOnUse" r="1"><stop offset=".384978" stop-color="#ffa235"/><stop offset=".817279" stop-color="#ffa235" stop-opacity="0"/></radialGradient><radialGradient id="m" cx="0" cy="0" gradientTransform="matrix(-3 -8 8 -3 25.5 23.5)" gradientUnits="userSpaceOnUse" r="1"><stop offset=".322476" stop-color="#e335ff"/><stop offset=".937073" stop-color="#e335ff" stop-opacity="0"/></radialGradient></defs><g filter="url(#e)"><use stroke-linecap="round" stroke-width="5" xlink:href="#a"/></g><g filter="url(#f)" mask="url(#c)"><path d="m25.65 25-2.5-12-1.5 2z" fill="#3600c2"/></g><g filter="url(#g)"><use stroke-linecap="round" stroke-linejoin="round" stroke-width="5" xlink:href="#b"/></g><g filter="url(#h)" mask="url(#d)"><path d="m12 25-2.5-12-1.5 2z" fill="#7116a8"/></g><g filter="url(#i)"><path d="m4 8s4.5 14.5 5.5 16.5" stroke="#3f76e1" stroke-linecap="round" stroke-width="5"/></g><g filter="url(#j)"><path d="m30.3717 8.79058c.4366-1.30986-.2713-2.72566-1.5811-3.16228-1.3099-.43662-2.7257.27128-3.1623 1.58114l-2.786 8.35786c-.3965-.8247-.8774-1.6315-1.4632-2.3501-1.2047-1.4778-2.9826-2.7172-5.3791-2.7172s-4.1744 1.2394-5.3791 2.7172c-.62533.7671-1.13117 1.6347-1.54237 2.5173-.91519-2.8184-1.81137-5.6431-2.69012-8.47307l-.00072-.00231c-.40924-1.31867-1.81002-2.05602-3.12869-1.64677-1.31867.40924-2.05567 1.81076-1.64643 3.12943 1.36552 4.39772 2.74775 8.79092 4.24131 13.14712.52539 1.5324 1.03772 2.9607 1.38009 3.6682.04428.0947.09435.1863.14978.2742.19372.3088.44666.5626.73629.7539.2873.1905.61724.3236.97449.3819.29448.0486.59924.045.89977-.0158.3013-.0606.5842-.1757.8372-.3352.3076-.193.5606-.4448.7516-.733.1915-.2879.3254-.6188.3839-.9771.0149-.0902.0249-.1814.0299-.2732l.0046-.0579c.0057-.0696.0151-.1775.0293-.318.0284-.2815.0756-.6915.1491-1.1864.1485-1 .3978-2.2988.7982-3.5689.41-1.3008.9254-2.3979 1.5182-3.1251.5531-.6784 1.0252-.8765 1.5037-.8765s.9506.1981 1.5037.8765c.5928.7272 1.1082 1.8243 1.5182 3.1251.4004 1.2701.6497 2.5689.7982 3.5689.0735.4949.1207.9049.1491 1.1864.0142.1405.0236.2484.0293.318.0423.5309.1927 1.0245.5214 1.4517.2178.283.4978.5217.8284.6928.2555.1328.5361.2227.8316.2605.2956.0385.5901.0228.8711-.041.3629-.0815.694-.2411.9762-.4593.2826-.2176.521-.4973.6919-.8276.069-.1326.1264-.2719.171-.4166z" fill="url(#k)"/><path d="m30.3717 8.79058c.4366-1.30986-.2713-2.72566-1.5811-3.16228-1.3099-.43662-2.7257.27128-3.1623 1.58114l-2.786 8.35786c-.3965-.8247-.8774-1.6315-1.4632-2.3501-1.2047-1.4778-2.9826-2.7172-5.3791-2.7172s-4.1744 1.2394-5.3791 2.7172c-.62533.7671-1.13117 1.6347-1.54237 2.5173-.91519-2.8184-1.81137-5.6431-2.69012-8.47307l-.00072-.00231c-.40924-1.31867-1.81002-2.05602-3.12869-1.64677-1.31867.40924-2.05567 1.81076-1.64643 3.12943 1.36552 4.39772 2.74775 8.79092 4.24131 13.14712.52539 1.5324 1.03772 2.9607 1.38009 3.6682.04428.0947.09435.1863.14978.2742.19372.3088.44666.5626.73629.7539.2873.1905.61724.3236.97449.3819.29448.0486.59924.045.89977-.0158.3013-.0606.5842-.1757.8372-.3352.3076-.193.5606-.4448.7516-.733.1915-.2879.3254-.6188.3839-.9771.0149-.0902.0249-.1814.0299-.2732l.0046-.0579c.0057-.0696.0151-.1775.0293-.318.0284-.2815.0756-.6915.1491-1.1864.1485-1 .3978-2.2988.7982-3.5689.41-1.3008.9254-2.3979 1.5182-3.1251.5531-.6784 1.0252-.8765 1.5037-.8765s.9506.1981 1.5037.8765c.5928.7272 1.1082 1.8243 1.5182 3.1251.4004 1.2701.6497 2.5689.7982 3.5689.0735.4949.1207.9049.1491 1.1864.0142.1405.0236.2484.0293.318.0423.5309.1927 1.0245.5214 1.4517.2178.283.4978.5217.8284.6928.2555.1328.5361.2227.8316.2605.2956.0385.5901.0228.8711-.041.3629-.0815.694-.2411.9762-.4593.2826-.2176.521-.4973.6919-.8276.069-.1326.1264-.2719.171-.4166z" fill="url(#l)"/><path d="m30.3717 8.79058c.4366-1.30986-.2713-2.72566-1.5811-3.16228-1.3099-.43662-2.7257.27128-3.1623 1.58114l-2.786 8.35786c-.3965-.8247-.8774-1.6315-1.4632-2.3501-1.2047-1.4778-2.9826-2.7172-5.3791-2.7172s-4.1744 1.2394-5.3791 2.7172c-.62533.7671-1.13117 1.6347-1.54237 2.5173-.91519-2.8184-1.81137-5.6431-2.69012-8.47307l-.00072-.00231c-.40924-1.31867-1.81002-2.05602-3.12869-1.64677-1.31867.40924-2.05567 1.81076-1.64643 3.12943 1.36552 4.39772 2.74775 8.79092 4.24131 13.14712.52539 1.5324 1.03772 2.9607 1.38009 3.6682.04428.0947.09435.1863.14978.2742.19372.3088.44666.5626.73629.7539.2873.1905.61724.3236.97449.3819.29448.0486.59924.045.89977-.0158.3013-.0606.5842-.1757.8372-.3352.3076-.193.5606-.4448.7516-.733.1915-.2879.3254-.6188.3839-.9771.0149-.0902.0249-.1814.0299-.2732l.0046-.0579c.0057-.0696.0151-.1775.0293-.318.0284-.2815.0756-.6915.1491-1.1864.1485-1 .3978-2.2988.7982-3.5689.41-1.3008.9254-2.3979 1.5182-3.1251.5531-.6784 1.0252-.8765 1.5037-.8765s.9506.1981 1.5037.8765c.5928.7272 1.1082 1.8243 1.5182 3.1251.4004 1.2701.6497 2.5689.7982 3.5689.0735.4949.1207.9049.1491 1.1864.0142.1405.0236.2484.0293.318.0423.5309.1927 1.0245.5214 1.4517.2178.283.4978.5217.8284.6928.2555.1328.5361.2227.8316.2605.2956.0385.5901.0228.8711-.041.3629-.0815.694-.2411.9762-.4593.2826-.2176.521-.4973.6919-.8276.069-.1326.1264-.2719.171-.4166z" fill="url(#m)"/><path d="m30.3717 8.79058c.4366-1.30986-.2713-2.72566-1.5811-3.16228-1.3099-.43662-2.7257.27128-3.1623 1.58114l-2.786 8.35786c-.3965-.8247-.8774-1.6315-1.4632-2.3501-1.2047-1.4778-2.9826-2.7172-5.3791-2.7172s-4.1744 1.2394-5.3791 2.7172c-.62533.7671-1.13117 1.6347-1.54237 2.5173-.91519-2.8184-1.81137-5.6431-2.69012-8.47307l-.00072-.00231c-.40924-1.31867-1.81002-2.05602-3.12869-1.64677-1.31867.40924-2.05567 1.81076-1.64643 3.12943 1.36552 4.39772 2.74775 8.79092 4.24131 13.14712.52539 1.5324 1.03772 2.9607 1.38009 3.6682.04428.0947.09435.1863.14978.2742.19372.3088.44666.5626.73629.7539.2873.1905.61724.3236.97449.3819.29448.0486.59924.045.89977-.0158.3013-.0606.5842-.1757.8372-.3352.3076-.193.5606-.4448.7516-.733.1915-.2879.3254-.6188.3839-.9771.0149-.0902.0249-.1814.0299-.2732l.0046-.0579c.0057-.0696.0151-.1775.0293-.318.0284-.2815.0756-.6915.1491-1.1864.1485-1 .3978-2.2988.7982-3.5689.41-1.3008.9254-2.3979 1.5182-3.1251.5531-.6784 1.0252-.8765 1.5037-.8765s.9506.1981 1.5037.8765c.5928.7272 1.1082 1.8243 1.5182 3.1251.4004 1.2701.6497 2.5689.7982 3.5689.0735.4949.1207.9049.1491 1.1864.0142.1405.0236.2484.0293.318.0423.5309.1927 1.0245.5214 1.4517.2178.283.4978.5217.8284.6928.2555.1328.5361.2227.8316.2605.2956.0385.5901.0228.8711-.041.3629-.0815.694-.2411.9762-.4593.2826-.2176.521-.4973.6919-.8276.069-.1326.1264-.2719.171-.4166z" fill="#fff" fill-opacity=".01"/></g></svg>